<svg xmlns="http://www.w3.org/2000/svg" width="13.105" height="13.108" viewBox="0 0 13.105 13.108"><defs><style>.a{fill:#fff;}</style></defs><path class="a" d="M248.28,352.2a6.533,6.533,0,0,1,4.633,1.922h0a6.55,6.55,0,0,1,0,9.269l-.038.034a6.551,6.551,0,0,1-9.227-.034v0a6.56,6.56,0,0,1,0-9.269l.038-.038a6.547,6.547,0,0,1,4.594-1.883Zm-.729,3.386h0v2.439h-2.435a.729.729,0,0,0,0,1.457h2.435v2.435a.729.729,0,1,0,1.457,0v-2.435h2.439a.729.729,0,0,0,0-1.457h-2.439v-2.439a.729.729,0,0,0-1.457,0Zm4.334-.437h0a5.1,5.1,0,0,0-7.175-.034l-.035.034a5.1,5.1,0,0,0,0,7.21h0a5.092,5.092,0,0,0,7.179.031l.031-.031a5.092,5.092,0,0,0,0-7.21Z" transform="translate(-241.73 -352.203)"/></svg>