<svg xmlns="http://www.w3.org/2000/svg" width="22" height="22.001" viewBox="0 0 22 22.001"><defs><style>.a{fill:#fff;}</style></defs><g transform="translate(0 0.001)"><g transform="translate(0 -0.001)"><path class="a" d="M21.687,3.69l-11-3.667a.457.457,0,0,0-.6.434V5.637L.3,9.194a.457.457,0,0,0-.3.431V21.542A.459.459,0,0,0,.458,22H21.542A.459.459,0,0,0,22,21.542V4.125A.458.458,0,0,0,21.687,3.69ZM4.583,19.708a.459.459,0,0,1-.458.458H2.292a.459.459,0,0,1-.458-.458V16.042a.459.459,0,0,1,.458-.458H4.125a.459.459,0,0,1,.458.458Zm0-5.5a.459.459,0,0,1-.458.458H2.292a.459.459,0,0,1-.458-.458V10.542a.459.459,0,0,1,.458-.458H4.125a.459.459,0,0,1,.458.458Zm4.583,5.5a.459.459,0,0,1-.458.458H6.875a.459.459,0,0,1-.458-.458V16.042a.459.459,0,0,1,.458-.458H8.708a.459.459,0,0,1,.458.458Zm0-5.5a.459.459,0,0,1-.458.458H6.875a.459.459,0,0,1-.458-.458V10.542a.458.458,0,0,1,.458-.458H8.708a.459.459,0,0,1,.458.458Zm6.417,5.5a.459.459,0,0,1-.458.458H13.292a.459.459,0,0,1-.458-.458V16.042a.459.459,0,0,1,.458-.458h1.833a.459.459,0,0,1,.458.458Zm0-5.5a.459.459,0,0,1-.458.458H13.292a.459.459,0,0,1-.458-.458V10.542a.458.458,0,0,1,.458-.458h1.833a.459.459,0,0,1,.458.458Zm0-5.5a.459.459,0,0,1-.458.458H13.292a.459.459,0,0,1-.458-.458V5.042a.459.459,0,0,1,.458-.458h1.833a.459.459,0,0,1,.458.458Zm3.667,11a.459.459,0,0,1-.458.458H16.958a.459.459,0,0,1-.458-.458V16.042a.459.459,0,0,1,.458-.458h1.833a.459.459,0,0,1,.458.458Zm0-5.5a.459.459,0,0,1-.458.458H16.958a.459.459,0,0,1-.458-.458V10.542a.459.459,0,0,1,.458-.458h1.833a.459.459,0,0,1,.458.458Zm0-5.5a.459.459,0,0,1-.458.458H16.958a.459.459,0,0,1-.458-.458V5.042a.459.459,0,0,1,.458-.458h1.833a.459.459,0,0,1,.458.458Z" transform="translate(0 0.001)"/></g></g></svg>