<svg xmlns="http://www.w3.org/2000/svg" width="22" height="22" viewBox="0 0 22 22"><defs><style>.a{fill:#fff;}</style></defs><g transform="translate(-0.512 -0.512)"><path class="a" d="M19.409,12.487A7.145,7.145,0,0,1,17.65,16.73l2.707,2.707a10.955,10.955,0,0,0,2.882-6.95Z" transform="translate(-0.728 -0.508)"/><path class="a" d="M16.245,16.9a7.175,7.175,0,1,1-5.2-12.557V.512a11,11,0,1,0,7.907,19.094Z"/><path class="a" d="M12.513,4.343a7.181,7.181,0,0,1,6.679,6.679h3.83A11.009,11.009,0,0,0,12.513.513Z" transform="translate(-0.51 0)"/></g></svg>