<svg xmlns="http://www.w3.org/2000/svg" width="20" height="17" viewBox="0 0 20 17"><defs><style>.a{fill:#fff;}</style></defs><g transform="translate(0 -2)"><g transform="translate(6.667 2)"><path class="a" d="M14.25,5.4H8.417A.421.421,0,0,1,8,4.975v-1.7A1.264,1.264,0,0,1,9.25,2h4.167a1.264,1.264,0,0,1,1.25,1.275v1.7A.421.421,0,0,1,14.25,5.4ZM8.833,4.55h5V3.275a.421.421,0,0,0-.417-.425H9.25a.421.421,0,0,0-.417.425Z" transform="translate(-8 -2)"/></g><g transform="translate(0 4.55)"><path class="a" d="M.127,10.052l6.915,1.84a11.517,11.517,0,0,0,5.916,0l6.916-1.84A.425.425,0,0,1,20,10.045V6.275A1.264,1.264,0,0,0,18.75,5H1.25A1.264,1.264,0,0,0,0,6.275v3.77A.425.425,0,0,1,.127,10.052ZM10,8.4a1.7,1.7,0,1,1-1.667,1.7A1.685,1.685,0,0,1,10,8.4Z" transform="translate(0 -5)"/><path class="a" d="M13.177,13.8A12.367,12.367,0,0,1,10,14.21,12.341,12.341,0,0,1,6.823,13.8L0,11.98v7.242A1.264,1.264,0,0,0,1.25,20.5h17.5A1.264,1.264,0,0,0,20,19.222V11.98Z" transform="translate(0 -6.047)"/><ellipse class="a" cx="0.833" cy="0.85" rx="0.833" ry="0.85" transform="translate(9.167 4.25)"/></g></g></svg>