<svg xmlns="http://www.w3.org/2000/svg" width="16" height="22" viewBox="0 0 16 22"><defs><style>.a{fill:#fff;}</style></defs><g transform="translate(-3.5 -0.001)"><path class="a" d="M11.5,0a7.907,7.907,0,0,0-8,7.792,7.785,7.785,0,0,0,5.942,7.525l1.613,4.542a.476.476,0,0,0,.89,0l1.613-4.542A7.787,7.787,0,0,0,19.5,7.793,7.906,7.906,0,0,0,11.5,0Zm0,11.918A4.187,4.187,0,0,1,7.265,7.793a4.237,4.237,0,0,1,8.471,0A4.187,4.187,0,0,1,11.5,11.919Z" transform="translate(0 0)"/><path class="a" d="M14.146,19.128a.465.465,0,0,0-.488.306l-.824,2.318a1.424,1.424,0,0,1-2.667,0l-.824-2.318a.462.462,0,0,0-.488-.306c-1.61.145-5.354.645-5.354,2.175,0,1.813,5.233,2.292,8,2.292s8-.479,8-2.292C19.5,19.772,15.755,19.273,14.146,19.128Z" transform="translate(0 -1.592)"/></g></svg>