<svg xmlns="http://www.w3.org/2000/svg" width="21" height="22" viewBox="0 0 21 22"><defs><style>.a{fill:#fff;}</style></defs><g transform="translate(-0.633)"><g transform="translate(0.633)"><path class="a" d="M4.667,5.5A2.292,2.292,0,1,0,2.358,3.208,2.3,2.3,0,0,0,4.667,5.5ZM17.6,5.5A2.292,2.292,0,1,0,15.29,3.208,2.3,2.3,0,0,0,17.6,5.5Zm-6.545-.917A2.292,2.292,0,1,0,8.744,2.292,2.3,2.3,0,0,0,11.053,4.583ZM6.6,14.874a2.463,2.463,0,0,1-.609-1.927L6.6,7.623a3.564,3.564,0,0,1,.116-.558A.459.459,0,0,0,6.39,6.5a2.288,2.288,0,0,0-.583-.081H3.526A2.305,2.305,0,0,0,1.235,8.425l-.592,4.7A1.369,1.369,0,0,0,.979,14.2a1.389,1.389,0,0,0,.948.462l.431,5.994a.46.46,0,0,0,.461.425H6.514a.461.461,0,0,0,.461-.425l.356-4.938a.453.453,0,0,0-.217-.422A2.434,2.434,0,0,1,6.6,14.874Zm8.6-1.823-.612-5.325A2.436,2.436,0,0,0,12.233,5.5H9.875A2.436,2.436,0,0,0,7.52,7.726L6.908,13.05a1.547,1.547,0,0,0,.38,1.214,1.369,1.369,0,0,0,.949.463l.51,6.849A.461.461,0,0,0,9.207,22H12.9a.461.461,0,0,0,.461-.424l.51-6.849a1.371,1.371,0,0,0,.949-.463A1.551,1.551,0,0,0,15.2,13.051Zm6.422.071-.592-4.7a2.307,2.307,0,0,0-2.291-2.008H16.458a2.3,2.3,0,0,0-.769.135.457.457,0,0,0-.292.55,3.72,3.72,0,0,1,.109.521l.612,5.324a2.463,2.463,0,0,1-.609,1.927,2.3,2.3,0,0,1-.39.336.455.455,0,0,0-.192.405l.363,5.043a.461.461,0,0,0,.461.426h3.695a.461.461,0,0,0,.461-.425l.431-5.994a1.389,1.389,0,0,0,.948-.462A1.367,1.367,0,0,0,21.622,13.122Z" transform="translate(-0.633)"/></g></g></svg>