<svg xmlns="http://www.w3.org/2000/svg" width="18" height="16" viewBox="0 0 18 16"><defs><style>.a{fill:#fff;}</style></defs><g transform="translate(0)"><path class="a" d="M6.12,9.5a.949.949,0,0,0-.3-.653L.11,3.621V1.78a.326.326,0,0,1,.18-.3.266.266,0,0,1,.3.059L8.4,9.263a.285.285,0,0,1,0,.416L.591,17.4c-.06.059-.12.059-.24.059H.23a.326.326,0,0,1-.18-.3V15.321l5.71-5.226A.652.652,0,0,0,6.12,9.5Z" transform="translate(9.506 -1.459)"/><path class="a" d="M8.065,8.541a6.679,6.679,0,0,1,3.546-1.307V2.78a.326.326,0,0,1,.18-.3.266.266,0,0,1,.3.059l2.524,2.316h0L19.9,9.729c.06,0,.12.119.12.178a.448.448,0,0,1-.12.238l-5.289,4.87h0l-2.524,2.257a.222.222,0,0,1-.18.059h-.12a.326.326,0,0,1-.18-.3V12.579c-1.142.059-4.988.416-6.01,3.92a.406.406,0,0,1-.361.238.273.273,0,0,1-.24-.3C5,12.7,6.022,10.085,8.065,8.541Z" transform="translate(-5 -1.865)"/></g></svg>