<svg xmlns="http://www.w3.org/2000/svg" width="20" height="21.996" viewBox="0 0 20 21.996"><defs><style>.a{fill:#fff;}</style></defs><g transform="translate(-4.004 -1.007)"><path class="a" d="M23.977,1.346c-.006-.017-.008-.032-.015-.048a.5.5,0,0,0-.127-.176c-.008-.007-.018-.009-.026-.015S23.8,1.1,23.8,1.094s-.022-.005-.032-.011a.492.492,0,0,0-.2-.07c-.014,0-.027-.006-.041-.006a.48.48,0,0,0-.239.058c-.007,0-.014,0-.021.005l-19.007,11a.5.5,0,0,0,.093.906L10.111,14.9l1.922,5.765c0,.011.015.016.019.026a.485.485,0,0,0,.155.215l.005,0a.5.5,0,0,0,.3.1h.031c.013,0,.022-.012.035-.014a.479.479,0,0,0,.22-.091.446.446,0,0,0,.063-.052c.016-.016.037-.024.051-.042l2.221-2.961h0l.618-.824,4.567,1.944a.5.5,0,0,0,.2.041l.01,0a.487.487,0,0,0,.227-.057A.5.5,0,0,0,21,18.6L24,1.589c0-.01,0-.019,0-.029A.489.489,0,0,0,23.977,1.346ZM19.592,6.131,13.1,15.219a.489.489,0,0,0-.081.188l0,0-.631,3.155-1.308-3.923ZM13.43,18.447l.443-2.218.924.393Z" transform="translate(0 0)"/><path class="a" d="M8.268,21.989l-.225,0H8.037A6.2,6.2,0,0,1,6.8,21.865a.5.5,0,1,0-.2.98,7.175,7.175,0,0,0,1.438.149h.007l.261,0a.5.5,0,0,0,.481-.518A.468.468,0,0,0,8.268,21.989Z" transform="translate(0 0.009)"/><path class="a" d="M11.25,21.073a7.158,7.158,0,0,1-.837.424.5.5,0,0,0,.392.92,8.262,8.262,0,0,0,.952-.483.5.5,0,1,0-.507-.861Z" transform="translate(0.003 0.009)"/></g></svg>