<svg xmlns="http://www.w3.org/2000/svg" width="16" height="22" viewBox="0 0 16 22"><defs><style>.a{fill:#fff;}</style></defs><g transform="translate(-3)"><g transform="translate(3)"><path class="a" d="M7,3.667h8a.452.452,0,0,0,.444-.458V2.292A1.356,1.356,0,0,0,14.111.917H12.534a1.742,1.742,0,0,0-3.068,0H7.889A1.356,1.356,0,0,0,6.556,2.292v.917A.452.452,0,0,0,7,3.667ZM17.667,1.833h-.889a.452.452,0,0,0-.444.458v.917A1.356,1.356,0,0,1,15,4.583H7A1.356,1.356,0,0,1,5.667,3.208V2.292a.452.452,0,0,0-.444-.458H4.333A1.356,1.356,0,0,0,3,3.208V20.625A1.356,1.356,0,0,0,4.333,22H17.667A1.356,1.356,0,0,0,19,20.625V3.208A1.356,1.356,0,0,0,17.667,1.833ZM6.111,18.792A.917.917,0,1,1,7,17.875.9.9,0,0,1,6.111,18.792Zm0-3.667A.917.917,0,1,1,7,14.208.9.9,0,0,1,6.111,15.125Zm0-3.667A.917.917,0,1,1,7,10.542.9.9,0,0,1,6.111,11.458Zm0-3.667A.917.917,0,1,1,7,6.875.9.9,0,0,1,6.111,7.792Zm6.222,10.542H8.778a.459.459,0,0,1,0-.917h3.556a.459.459,0,0,1,0,.917Zm4.444-3.667h-8a.459.459,0,0,1,0-.917h8a.459.459,0,0,1,0,.917Zm0-3.667h-8a.459.459,0,0,1,0-.917h8a.459.459,0,0,1,0,.917Zm0-3.667h-8a.459.459,0,0,1,0-.917h8a.459.459,0,0,1,0,.917Z" transform="translate(-3)"/></g></g></svg>